<?xml version="1.0" encoding="utf-8"?>
<!-- Generator: Adobe Illustrator 23.0.4, SVG Export Plug-In . SVG Version: 6.00 Build 0)  -->
<svg version="1.1" id="Layer_1" xmlns="http://www.w3.org/2000/svg" xmlns:xlink="http://www.w3.org/1999/xlink" x="0px" y="0px"
	 viewBox="0 0 32 32" style="enable-background:new 0 0 32 32;" xml:space="preserve">
<style type="text/css">
	.st0{fill-rule:evenodd;clip-rule:evenodd;fill:#EF9033;}
</style>
<path class="st0" d="M15.69,6.05l4.6,2.45h0l4.61,2.45L25,11v0.1V16v4.9V21l-0.09,0.05L20.3,23.5h0l-4.6,2.45L15.6,26l-0.09-0.05
	l-4.6-2.45h0l-4.6-2.45L6.2,21v-0.1V16v-4.9V11l0.09-0.05l4.6-2.45h0l4.6-2.45L15.6,6L15.69,6.05L15.69,6.05z M15.22,20.9
	l-4.04-2.15v4.3L15.22,20.9L15.22,20.9z M10.62,18.45L6.58,16.3v4.3L10.62,18.45L10.62,18.45z M6.77,16l4.04,2.15v-4.3L6.77,16
	L6.77,16z M11.37,18.45l4.04,2.15v-4.3L11.37,18.45L11.37,18.45z M19.83,18.45l-4.04-2.15v4.3L19.83,18.45L19.83,18.45z M15.22,16
	l-4.04-2.15v4.3L15.22,16L15.22,16z M10.62,13.55L6.58,11.4v4.3L10.62,13.55L10.62,13.55z M11.37,13.55l4.04,2.15v-4.3L11.37,13.55
	L11.37,13.55z M15.98,16l4.04,2.15v-4.3L15.98,16L15.98,16z M19.83,13.55l-4.04-2.15v4.3L19.83,13.55L19.83,13.55z M10.81,23.05
	v-4.3L6.77,20.9L10.81,23.05L10.81,23.05z M15.41,25.5v-4.3l-4.04,2.15L15.41,25.5z"/>
</svg>
